<svg xmlns="http://www.w3.org/2000/svg" viewBox="0 0 100 100"><circle cx="50" cy="50" r="40.9" fill="none" stroke="#aaa" stroke-width="2" stroke-linecap="round" stroke-linejoin="bevel" stroke-dasharray="11.5665,11.5665"><animateTransform attributeName="transform" attributeType="XML" type="rotate" dur="5s" from="0 50 50" to="360 50 50" repeatCount="indefinite"/></circle><circle cx="50" cy="50" r="36.5" fill="#fff"/><path d="M32.8 40.2c1.2-1.5 2.9-2.8 4.8-2.7 1.5.1 2.7 1.1 3.7 2.1l18.9 18.9c.9.9 2.2 2 3.7 1.5 1.2-.5 2.2-1.6 2.2-2.9 0-1.1-.9-2-1.6-2.8L57 46.8c-.3-.4-.9-.6-.8-1.1.4-.6 1-1 1.6-1.5 2.7 2.8 5.5 5.5 8.2 8.2.7.7 1.4 1.4 2.3 1.7 2 .7 4.2-1.6 3.6-3.6-.3-.7-.8-1.4-1.3-1.9-2.9-2.9-5.8-5.8-8.6-8.7.5-.7.8-1.4.9-2.2.4.2.8.5 1.1.9 2.9 3 5.9 5.8 8.8 8.8 1.3 1.3 2 3.3 1.2 5-1 2.2-3.3 4.2-5.8 3.8.5 2.9-2 5.5-4.7 6.1-1.7.3-3.3-.7-4.4-1.8-6.5-6.5-12.9-13-19.4-19.4-.8-.7-1.7-1.5-2.9-1.4-1.6.3-3 1.9-2.6 3.5.2 1 1 1.7 1.6 2.4l8.4 8.4c-.6.6-1.1 1.1-1.7 1.6l-8.3-8.3c-.8-.8-1.7-1.6-2.9-1.7-1.3 0-2.5 1-2.9 2.2-.4 1.4.5 2.6 1.4 3.5l8.6 8.6c-.4.7-.8 1.5-1 2.3-2.8-2.9-5.7-5.7-8.5-8.5-1.2-1.2-2.6-2.4-2.8-4.2-.3-2.1 1.2-3.9 2.7-5.1 1-.8 2.2-1 3.4-.9-.4-1.1-.2-2.4.6-3.3z" fill="#df414f"/><path d="M47.6 27.2c1.3-1.3 3.5-2 5.2-1.1 2.1 1 4 3.2 3.5 5.7 2.5-.4 4.8 1.5 5.8 3.7.9 1.7.1 3.8-1.2 5.1-3 3.1-6.1 6.1-9.1 9.2-.6-.5-1.1-1.1-1.7-1.6 2.8-2.9 5.7-5.7 8.6-8.6.7-.8 1.5-1.6 1.4-2.7.1-1.3-1-2.3-2.1-2.8-1.2-.5-2.5.3-3.3 1.2C51.8 38 49 41 46 43.9c-.6-.5-1.1-1.1-1.7-1.6 2.8-2.8 5.6-5.6 8.4-8.5.8-.8 1.6-1.8 1.7-2.9-.1-1.4-1.2-2.5-2.5-2.9-1.2-.2-2.3.6-3.2 1.4-2.9 2.9-5.8 5.8-8.6 8.7-.7-.4-1.5-.8-2.3-1 3.3-3.4 6.5-6.6 9.8-9.9zm-8.4 32.1l9-9c.6.5 1.1 1.1 1.7 1.7-2.8 2.9-5.7 5.7-8.5 8.5-.6.6-1.1 1.2-1.4 2-.7 1.9 1.3 4.1 3.3 3.6.9-.1 1.6-.9 2.3-1.5l8.5-8.5c.6.5 1.1 1.1 1.7 1.7-2.8 2.8-5.5 5.6-8.3 8.3-.6.6-1.2 1.3-1.6 2.1-.7 1.9 1.3 4.1 3.3 3.7 1-.2 1.7-1 2.5-1.6l8.4-8.4c.8.4 1.5.7 2.3 1l-8.7 8.7c-1.1 1.2-2.4 2.5-4.1 2.6-2.2.2-4-1.3-5.2-3-.6-.9-.7-2-.6-3-2.7.3-5.1-1.8-5.9-4.2-.8-1.7.1-3.5 1.3-4.7z" fill="#008bc8"/></svg>