<svg xmlns="http://www.w3.org/2000/svg" width="31.292" height="39.784" viewBox="0 0 31.292 39.784"> <g id="Group_88741" stroke-width="0.5px" data-name="Group 88741" transform="translate(-440.065 -209.214)"> <path id="Path_183965" fill="#ffabaf" stroke="#2d2d2d" stroke-miterlimit="10" d="M475.124 252.386a2.182 2.182 0 0 1-2.452 1.521c-2.488-.405-5.73-5.13-7.548-12.174l2.452-1.52c5.5 4.76 8.291 9.765 7.548 12.173z" data-name="Path 183965" transform="translate(-4.199 -5.204)"/> <circle id="Ellipse_13885" cx="12.608" cy="12.608" r="12.608" fill="none" stroke="#fff" stroke-miterlimit="10" data-name="Ellipse 13885" transform="translate(442.763 211.913)"/> <path id="Path_183967" fill="#c7dcff" stroke="#2d2d2d" d="M15.057 0a15.057 15.057 0 0 1 15.056 15.057 15.354 15.354 0 0 1-.967 5.319A15.058 15.058 0 1 1 15.057 0z" data-name="Path 183967" transform="translate(440.315 209.464)"/> <circle id="Ellipse_13887" cx="12.191" cy="12.191" r="12.191" fill="#fff" stroke="#2d2d2d" stroke-miterlimit="10" data-name="Ellipse 13887" transform="translate(443.181 212.33)"/> <path id="Path_183966" fill="#cde997" stroke="#2d2d2d" stroke-linecap="round" stroke-miterlimit="10" d="M462.067 224.569h-2.022a.83.83 0 0 1-.831-.831v-2.068a1.8 1.8 0 0 0-1.8-1.8 1.8 1.8 0 0 0-1.8 1.8v2.069a.83.83 0 0 1-.831.831h-2.013a1.8 1.8 0 1 0-.047 3.591h2.069a.831.831 0 0 1 .831.831V231a1.837 1.837 0 0 0 1.308 1.794 1.8 1.8 0 0 0 2.284-1.73v-2.069a.831.831 0 0 1 .831-.831h2.069a1.8 1.8 0 1 0-.047-3.591z" data-name="Path 183966" transform="translate(-1.796 -1.762)"/> </g></svg>